Coordinates
version=1
nRows=20
nColumns=38
inDegrees=no

Units are S.I. units (second, meters, Newtons, ...)
If the header above contains a line with 'inDegrees', this indicates whether rotational values are in degrees (yes) or radians (no).

endheader
time	pelvis_tilt	pelvis_list	pelvis_rotation	pelvis_tx	pelvis_ty	pelvis_tz	hip_flexion_r	hip_adduction_r	hip_rotation_r	knee_angle_r	ankle_angle_r	subtalar_angle_r	mtp_angle_r	hip_flexion_l	hip_adduction_l	hip_rotation_l	knee_angle_l	ankle_angle_l	subtalar_angle_l	mtp_angle_l	lumbar_extension	lumbar_bending	lumbar_rotation	arm_flex_r	arm_add_r	arm_rot_r	elbow_flex_r	pro_sup_r	wrist_flex_r	wrist_dev_r	arm_flex_l	arm_add_l	arm_rot_l	elbow_flex_l	pro_sup_l	wrist_flex_l	wrist_dev_l
1.55	3.12462	1.31306	-1.46235	0.518561	1.30894	0.953046	-0.0746944	-0.141969	-0.153428	1.24948	-0.361815	0	0	-0.131401	-0.0336243	-0.412356	0.377103	-0.21129	0	0	-0.389986	-0.0378624	-0.170047	0.107136	-0.553433	1.11365	0.765078	0.360633	0	0	-0.332917	-0.415663	-0.051337	0.957448	1.52854	0	0
1.56	3.11235	1.31441	-1.44765	0.517316	1.31847	0.954235	-0.0424876	-0.146399	-0.161484	1.26865	-0.351034	0	0	-0.145867	-0.035169	-0.409994	0.367754	-0.208209	0	0	-0.388076	-0.0325591	-0.174502	0.112009	-0.555339	1.1173	0.765069	0.359095	0	0	-0.32459	-0.41881	-0.0490805	0.960858	1.52948	0	0
1.57	3.11239	1.31246	-1.44127	0.51564	1.32858	0.955246	-0.0203163	-0.174328	-0.207792	1.28186	-0.346932	0	0	-0.165326	-0.0341227	-0.407261	0.357151	-0.204136	0	0	-0.388159	-0.0287518	-0.182934	0.114677	-0.559685	1.12117	0.769577	0.356511	0	0	-0.319192	-0.423045	-0.04718	0.967891	1.52975	0	0
1.58	3.10124	1.30827	-1.42398	0.514106	1.33838	0.956607	-0.00471235	-0.188995	-0.240551	1.28112	-0.344252	0	0	-0.186042	-0.0371864	-0.404283	0.346656	-0.201661	0	0	-0.39107	-0.0217135	-0.18972	0.118404	-0.563088	1.12531	0.771877	0.354875	0	0	-0.311303	-0.426698	-0.0450819	0.974005	1.52949	0	0
1.59	3.08236	1.30709	-1.40197	0.513031	1.34768	0.957754	0.0207361	-0.184047	-0.241093	1.27933	-0.336571	0	0	-0.201684	-0.0420603	-0.400605	0.337348	-0.199781	0	0	-0.391839	-0.0139357	-0.193075	0.123441	-0.565461	1.13014	0.771984	0.353986	0	0	-0.300927	-0.429391	-0.0435014	0.979243	1.52832	0	0
1.6	3.06804	1.30692	-1.38389	0.511896	1.35708	0.958553	0.046533	-0.176689	-0.235917	1.27507	-0.32225	0	0	-0.215773	-0.046048	-0.396999	0.32875	-0.197967	0	0	-0.391124	-0.00722772	-0.197067	0.127439	-0.568249	1.13463	0.772654	0.35308	0	0	-0.290672	-0.431705	-0.0427752	0.985428	1.52598	0	0
1.61	3.05016	1.30579	-1.36206	0.510809	1.36629	0.959406	0.0684959	-0.170773	-0.236715	1.265	-0.304679	0	0	-0.229927	-0.0515747	-0.392339	0.320934	-0.196189	0	0	-0.39163	0.00048011	-0.20051	0.131506	-0.570254	1.13875	0.772028	0.351891	0	0	-0.279449	-0.434216	-0.0418313	0.991631	1.52452	0	0
1.62	3.03387	1.30423	-1.34171	0.509768	1.37541	0.960117	0.0881913	-0.16493	-0.238216	1.25062	-0.285626	0	0	-0.244332	-0.056934	-0.387287	0.313709	-0.193944	0	0	-0.392843	0.00770014	-0.203652	0.135551	-0.57235	1.14321	0.771632	0.350955	0	0	-0.268345	-0.437074	-0.0410802	0.998793	1.52464	0	0
1.63	3.01874	1.30236	-1.32265	0.508809	1.38451	0.960693	0.106431	-0.158519	-0.239078	1.23222	-0.263626	0	0	-0.259254	-0.0620656	-0.382471	0.306411	-0.190779	0	0	-0.394572	0.0145598	-0.206668	0.13981	-0.574573	1.14795	0.771414	0.349804	0	0	-0.257238	-0.439319	-0.0418308	1.00675	1.52531	0	0
1.64	3.0057	1.30159	-1.30631	0.507904	1.39362	0.961006	0.124777	-0.152899	-0.239934	1.21047	-0.242052	0	0	-0.273322	-0.0660946	-0.378683	0.299127	-0.187114	0	0	-0.39537	0.0204505	-0.209548	0.144031	-0.576856	1.15264	0.771263	0.348968	0	0	-0.246303	-0.440868	-0.0440111	1.01548	1.52448	0	0
1.65	2.99415	1.30187	-1.29237	0.507128	1.40267	0.961042	0.141899	-0.147871	-0.238986	1.1854	-0.218503	0	0	-0.286619	-0.0690494	-0.375107	0.291414	-0.18273	0	0	-0.39523	0.0252351	-0.211959	0.148	-0.578854	1.15658	0.770947	0.347711	0	0	-0.235631	-0.441984	-0.0469817	1.02457	1.52379	0	0
1.66	2.98547	1.3015	-1.28058	0.506405	1.41162	0.960903	0.156058	-0.144235	-0.239532	1.15663	-0.190894	0	0	-0.300673	-0.0716088	-0.369917	0.283403	-0.176455	0	0	-0.396173	0.0294207	-0.215217	0.152608	-0.580984	1.16195	0.771553	0.345901	0	0	-0.225415	-0.442731	-0.0518478	1.03458	1.52515	0	0
1.67	2.9781	1.30241	-1.27054	0.505818	1.42062	0.960496	0.169938	-0.141318	-0.240097	1.1223	-0.175078	0	0	-0.313322	-0.073767	-0.365866	0.276151	-0.17153	0	0	-0.395848	0.0324708	-0.217619	0.156057	-0.582761	1.16644	0.771961	0.34479	0	0	-0.214929	-0.444121	-0.0551705	1.04441	1.52632	0	0
1.68	2.97325	1.30416	-1.26387	0.505406	1.42968	0.959882	0.18276	-0.138836	-0.239414	1.08381	-0.16314	0	0	-0.325514	-0.0749316	-0.362739	0.268714	-0.16663	0	0	-0.394908	0.0341548	-0.219327	0.158932	-0.584093	1.17012	0.771955	0.343309	0	0	-0.204606	-0.445609	-0.0583283	1.05432	1.52792	0	0
1.69	2.97103	1.30645	-1.2603	0.505134	1.43883	0.9591	0.194252	-0.137012	-0.238751	1.04221	-0.154382	0	0	-0.337513	-0.075271	-0.360193	0.261316	-0.161709	0	0	-0.393586	0.0346682	-0.220621	0.160857	-0.584896	1.17245	0.771654	0.341258	0	0	-0.194415	-0.447292	-0.061038	1.06422	1.53022	0	0
1.7	2.97156	1.30869	-1.25941	0.504997	1.44808	0.958237	0.203469	-0.135896	-0.239378	0.997315	-0.14785	0	0	-0.349827	-0.0752706	-0.357777	0.254143	-0.157064	0	0	-0.392413	0.0342891	-0.221816	0.161882	-0.58503	1.17411	0.77127	0.339279	0	0	-0.18426	-0.449411	-0.0628981	1.07369	1.5328	0	0
1.71	2.9741	1.31096	-1.26053	0.504989	1.45747	0.957309	0.210041	-0.135369	-0.241355	0.948844	-0.142068	0	0	-0.362303	-0.0749337	-0.354794	0.247055	-0.153095	0	0	-0.391138	0.0332229	-0.222759	0.162774	-0.584663	1.17673	0.770288	0.338821	0	0	-0.174115	-0.451761	-0.0638994	1.0825	1.53513	0	0
1.72	2.97734	1.31325	-1.26288	0.505107	1.46695	0.956304	0.214127	-0.134813	-0.244318	0.897491	-0.13462	0	0	-0.374875	-0.0743803	-0.351938	0.240099	-0.148878	0	0	-0.389895	0.0316912	-0.223283	0.163379	-0.583728	1.17867	0.768702	0.338068	0	0	-0.164384	-0.453835	-0.0652009	1.09119	1.53801	0	0
1.73	2.98159	1.31765	-1.26612	0.505206	1.47645	0.955025	0.218485	-0.135541	-0.249628	0.844793	-0.123581	0	0	-0.384347	-0.0733471	-0.350797	0.235303	-0.144429	0	0	-0.386643	0.0294777	-0.223984	0.163088	-0.582601	1.17945	0.767158	0.337551	0	0	-0.154917	-0.455552	-0.0661336	1.0992	1.54121	0	0
1.74	2.98545	1.32303	-1.26888	0.505372	1.48604	0.953545	0.221523	-0.136288	-0.256774	0.788853	-0.109787	0	0	-0.391906	-0.0725456	-0.35036	0.232415	-0.139424	0	0	-0.382264	0.0271012	-0.224694	0.162079	-0.581245	1.17962	0.765806	0.337842	0	0	-0.145837	-0.457126	-0.0667491	1.10677	1.54432	0	0
